<svg width="29" height="27" viewBox="0 0 29 27" fill="none" xmlns="http://www.w3.org/2000/svg">
<path d="M15.8084 21.5765L18.3631 26.1623C18.6785 26.7273 19.3717 26.964 19.9667 26.7082C21.1694 26.1903 22.2839 25.5096 23.2836 24.6927C23.862 24.2206 23.9079 23.3541 23.3794 22.8273L21.057 20.5127C17.3902 16.8583 11.4445 16.8583 7.77779 20.5127L5.45542 22.8273C4.92686 23.3541 4.97154 24.2206 5.55118 24.6927C6.55085 25.5083 7.66543 26.1903 8.86811 26.7082C9.46306 26.9652 10.1576 26.7286 10.4717 26.1623L13.0264 21.5765C13.6316 20.4873 15.2019 20.4873 15.8084 21.5765Z" fill="#0E53D9"/>
<path d="M15.8084 6.2156L18.3631 1.62974C18.6785 1.06478 19.3717 0.828111 19.9667 1.08387C21.1694 1.60175 22.2839 2.2825 23.2836 3.09941C23.862 3.57148 23.9079 4.43801 23.3794 4.9648L21.057 7.27936C17.3902 10.9338 11.4445 10.9338 7.77779 7.27936L5.45542 4.9648C4.92686 4.43801 4.97154 3.57148 5.55118 3.09941C6.55085 2.28378 7.66543 1.60175 8.86811 1.08387C9.46306 0.826839 10.1576 1.06351 10.4717 1.62974L13.0264 6.2156C13.6316 7.30353 15.2019 7.30353 15.8084 6.2156Z" fill="#0E53D9"/>
<path d="M26.8718 10.8638L18.5757 11.9047C15.8141 12.2508 13.0207 12.2508 10.2591 11.9047L1.96293 10.8638C1.27989 10.7786 0.651734 11.2532 0.555979 11.9314C0.465332 12.5727 0.418091 13.2293 0.418091 13.8948C0.418091 14.5615 0.465332 15.2181 0.555979 15.8594C0.651734 16.5389 1.28116 17.0135 1.96293 16.927L10.2591 15.8861C13.0207 15.54 15.8141 15.54 18.5757 15.8861L26.8718 16.927C27.5549 17.0122 28.183 16.5376 28.2788 15.8594C28.3694 15.2181 28.4167 14.5615 28.4167 13.8948C28.4167 13.228 28.3694 12.5727 28.2788 11.9314C28.183 11.2532 27.5549 10.7786 26.8718 10.8638Z" fill="#0E53D9"/>
</svg>
