<svg width="28" height="28" viewBox="0 0 28 28" fill="none" xmlns="http://www.w3.org/2000/svg">
<rect x="6.10352e-05" width="28" height="28" rx="14" fill="#626262"/>
<g clip-path="url(#clip0_2_6767)">
<path d="M14.0001 8.26161C15.8703 8.26161 16.0898 8.26995 16.829 8.30329C17.5126 8.33386 17.8822 8.4478 18.1295 8.54506C18.4574 8.67289 18.6908 8.82295 18.9354 9.06749C19.1799 9.31203 19.3327 9.54545 19.4578 9.87336C19.5523 10.1207 19.669 10.4903 19.6996 11.1739C19.7329 11.9131 19.7412 12.1326 19.7412 14.0028C19.7412 15.873 19.7329 16.0925 19.6996 16.8317C19.669 17.5153 19.555 17.8849 19.4578 18.1322C19.33 18.4601 19.1799 18.6935 18.9354 18.9381C18.6908 19.1826 18.4574 19.3354 18.1295 19.4605C17.8822 19.555 17.5126 19.6717 16.829 19.7023C16.0898 19.7356 15.8703 19.7439 14.0001 19.7439C12.1299 19.7439 11.9103 19.7356 11.1712 19.7023C10.4876 19.6717 10.118 19.5578 9.87065 19.4605C9.54274 19.3327 9.30931 19.1826 9.06477 18.9381C8.82023 18.6935 8.66739 18.4601 8.54234 18.1322C8.44786 17.8849 8.33115 17.5153 8.30058 16.8317C8.26723 16.0925 8.25889 15.873 8.25889 14.0028C8.25889 12.1326 8.26723 11.9131 8.30058 11.1739C8.33115 10.4903 8.44508 10.1207 8.54234 9.87336C8.67017 9.54545 8.82023 9.31203 9.06477 9.06749C9.30931 8.82295 9.54274 8.67011 9.87065 8.54506C10.118 8.45058 10.4876 8.33386 11.1712 8.30329C11.9103 8.26717 12.1327 8.26161 14.0001 8.26161ZM14.0001 7C12.0993 7 11.8603 7.00834 11.1128 7.04168C10.3681 7.07503 9.85953 7.19452 9.41491 7.36681C8.95362 7.54466 8.56457 7.78642 8.17553 8.17547C7.78648 8.56451 7.5475 8.95633 7.36687 9.41485C7.19458 9.85947 7.07509 10.368 7.04174 11.1155C7.0084 11.8603 7.00006 12.0992 7.00006 14C7.00006 15.9008 7.0084 16.1397 7.04174 16.8873C7.07509 17.632 7.19458 18.1405 7.36687 18.5879C7.54472 19.0492 7.78648 19.4383 8.17553 19.8273C8.56457 20.2164 8.95639 20.4553 9.41491 20.636C9.85953 20.8083 10.3681 20.9277 11.1156 20.9611C11.8631 20.9944 12.0993 21.0028 14.0028 21.0028C15.9064 21.0028 16.1426 20.9944 16.8901 20.9611C17.6348 20.9277 18.1434 20.8083 18.5908 20.636C19.0521 20.4581 19.4411 20.2164 19.8302 19.8273C20.2192 19.4383 20.4582 19.0464 20.6388 18.5879C20.8111 18.1433 20.9306 17.6348 20.9639 16.8873C20.9973 16.1397 21.0056 15.9035 21.0056 14C21.0056 12.0965 20.9973 11.8603 20.9639 11.1127C20.9306 10.368 20.8111 9.85947 20.6388 9.41207C20.461 8.95077 20.2192 8.56173 19.8302 8.17269C19.4411 7.78364 19.0493 7.54466 18.5908 7.36403C18.1462 7.19174 17.6376 7.07225 16.8901 7.0389C16.1398 7.00834 15.9008 7 14.0001 7Z" fill="white"/>
<path d="M14.0001 8.26161C15.8703 8.26161 16.0898 8.26995 16.829 8.30329C17.5126 8.33386 17.8822 8.4478 18.1295 8.54506C18.4574 8.67289 18.6908 8.82295 18.9354 9.06749C19.1799 9.31203 19.3327 9.54545 19.4578 9.87336C19.5523 10.1207 19.669 10.4903 19.6996 11.1739C19.7329 11.9131 19.7412 12.1326 19.7412 14.0028C19.7412 15.873 19.7329 16.0925 19.6996 16.8317C19.669 17.5153 19.555 17.8849 19.4578 18.1322C19.33 18.4601 19.1799 18.6935 18.9354 18.9381C18.6908 19.1826 18.4574 19.3354 18.1295 19.4605C17.8822 19.555 17.5126 19.6717 16.829 19.7023C16.0898 19.7356 15.8703 19.7439 14.0001 19.7439C12.1299 19.7439 11.9103 19.7356 11.1712 19.7023C10.4876 19.6717 10.118 19.5578 9.87065 19.4605C9.54274 19.3327 9.30931 19.1826 9.06477 18.9381C8.82023 18.6935 8.66739 18.4601 8.54234 18.1322C8.44786 17.8849 8.33115 17.5153 8.30058 16.8317C8.26723 16.0925 8.25889 15.873 8.25889 14.0028C8.25889 12.1326 8.26723 11.9131 8.30058 11.1739C8.33115 10.4903 8.44508 10.1207 8.54234 9.87336C8.67017 9.54545 8.82023 9.31203 9.06477 9.06749C9.30931 8.82295 9.54274 8.67011 9.87065 8.54506C10.118 8.45058 10.4876 8.33386 11.1712 8.30329C11.9103 8.26717 12.1327 8.26161 14.0001 8.26161Z" fill="white"/>
<path d="M14 10.4067C12.0159 10.4067 10.4042 12.0157 10.4042 14.0026C10.4042 15.9895 12.0131 17.5985 14 17.5985C15.9869 17.5985 17.5959 15.9895 17.5959 14.0026C17.5959 12.0157 15.9869 10.4067 14 10.4067ZM14 16.3341C12.7106 16.3341 11.6658 15.2892 11.6658 13.9998C11.6658 12.7104 12.7106 11.6656 14 11.6656C15.2894 11.6656 16.3343 12.7104 16.3343 13.9998C16.3343 15.2892 15.2894 16.3341 14 16.3341Z" fill="#626262"/>
<path d="M17.7377 11.1015C18.2011 11.1015 18.5769 10.7258 18.5769 10.2623C18.5769 9.79883 18.2011 9.4231 17.7377 9.4231C17.2742 9.4231 16.8984 9.79883 16.8984 10.2623C16.8984 10.7258 17.2742 11.1015 17.7377 11.1015Z" fill="#626262"/>
</g>
<defs>
<clipPath id="clip0_2_6767">
<rect width="14" height="14" fill="white" transform="translate(7.00006 7)"/>
</clipPath>
</defs>
</svg>
