<svg width="100" height="22" viewBox="0 0 100 22" fill="none" xmlns="http://www.w3.org/2000/svg">
<path d="M75.3552 5.73262L73.444 6.11944C73.2754 6.15379 73.1605 6.3103 73.181 6.48081L73.9572 13.1891C73.9891 13.469 73.8283 13.7337 73.564 13.8342C73.1593 13.9882 72.7047 14.104 72.203 14.1816C71.5072 14.2872 70.7041 14.3419 69.7951 14.3419C68.9792 14.3419 68.2694 14.2414 67.6681 14.0416C67.0667 13.8418 66.7654 13.4817 66.7654 12.9613C66.7654 12.3175 67.0093 10.5259 67.497 7.58783C67.5251 7.41987 67.414 7.25572 67.2455 7.22264L65.6023 6.90326C65.4261 6.8689 65.2563 6.98724 65.2295 7.16411L64.7788 10.0602C64.4711 11.8339 64.3167 12.9677 64.3167 13.4601C64.3167 14.8611 64.7239 15.9134 65.541 16.6208C66.3569 17.327 67.9234 17.6808 69.7964 17.6808C70.6658 17.6808 71.6055 17.5675 72.6166 17.341C73.6265 17.1145 74.4934 16.7468 75.2161 16.2404C75.9387 15.734 76.3281 14.9781 76.3255 13.9118C76.3217 12.0795 76.1187 9.68607 75.7548 6.02655C75.7319 5.83187 75.5467 5.69317 75.3552 5.73262Z" fill="#414659"/>
<path d="M81.2528 12.4994L81.2158 0.533448C81.2145 0.212795 80.9311 -0.0327855 80.6132 0.0104773L78.43 0.30441C78.1593 0.341311 77.9601 0.576711 77.9703 0.849012L78.4134 12.6979C78.4249 13.0033 78.6917 13.2349 78.9968 13.2056L80.774 13.0288C81.046 13.0008 81.2528 12.773 81.2528 12.4994Z" fill="#414659"/>
<path d="M94.288 4.55178L92.9283 4.78463C92.6168 4.83808 92.401 5.12437 92.4368 5.43612L92.8556 9.15926C92.4547 9.34631 91.9797 9.47228 91.4307 9.53972C90.8817 9.60589 90.2063 9.64024 89.4033 9.64024H88.7407C88.0308 9.64024 87.5099 9.5499 87.1754 9.37049C86.8409 9.19107 86.6468 8.86024 86.5932 8.37926L86.3647 6.365C86.3251 6.01762 85.9957 5.77968 85.6523 5.84966L84.1891 6.14741C83.8814 6.20976 83.6746 6.49987 83.718 6.81035L84.4534 12.1304C84.4738 12.2793 84.4521 12.432 84.3794 12.5643C84.0117 13.2361 83.4512 13.8787 82.6979 14.4895C81.9715 15.0786 80.8696 15.7174 79.3938 16.4045C79.0567 16.561 78.9392 16.9796 79.1512 17.2838L80.2185 18.8196C80.387 19.0614 80.7126 19.1453 80.9769 19.0155C82.9162 18.0549 84.3309 17.0433 85.2169 15.9795C86.0851 14.9387 86.583 13.7693 86.7183 12.4765C87.275 12.7412 87.9848 12.9791 88.7394 12.9791H89.402C91.4486 12.9791 92.9475 12.6585 93.8974 12.0184C94.3251 11.7258 94.6404 11.3555 94.8409 10.9089C95.0413 10.4622 95.1422 9.98507 95.1422 9.47864C95.1422 8.31564 95.0886 6.85743 94.9826 5.10401C94.9634 4.75155 94.6379 4.49197 94.288 4.55178Z" fill="#414659"/>
<path d="M99.7766 0.533448C99.7753 0.212795 99.4919 -0.0327855 99.174 0.0104773L96.9908 0.30441C96.7201 0.341311 96.5209 0.576711 96.5311 0.849012L96.9742 12.6979C96.9857 13.0033 97.2525 13.2349 97.5576 13.2056L99.3348 13.0288C99.6068 13.002 99.8149 12.773 99.8136 12.5007L99.7766 0.533448Z" fill="#414659"/>
<path d="M60.5153 0.0104767L58.3321 0.30441C58.0614 0.34131 57.8622 0.576711 57.8724 0.849012L58.3155 12.6979C58.327 13.0033 58.5938 13.2349 58.8989 13.2056L60.6761 13.0288C60.9481 13.002 61.1562 12.773 61.1549 12.5007L61.1179 0.53472C61.1179 0.212794 60.8344 -0.032786 60.5153 0.0104767Z" fill="#414659"/>
<path d="M94.2405 15.7938C94.1882 15.5139 93.943 15.3115 93.6571 15.3115H88.065C87.7369 15.3115 87.4713 15.5762 87.4713 15.9032V17.7292C87.4713 18.0562 87.7369 18.3208 88.065 18.3208H94.003C94.3746 18.3208 94.6555 17.9837 94.5865 17.6197L94.2405 15.7938Z" fill="#414659"/>
<path d="M26.8062 15.2784H21.7567C21.4401 15.2784 21.2026 15.5647 21.2613 15.8752L21.5563 17.4276C21.6009 17.6655 21.8091 17.8373 22.0516 17.8373H24.8132V18.8629C24.8132 19.1403 25.0392 19.3655 25.3175 19.3655H26.8062C27.0845 19.3655 27.3105 19.1403 27.3105 18.8629V17.3792C27.3105 17.3716 27.3092 17.3652 27.3079 17.3576C27.3079 17.3499 27.3105 17.3436 27.3105 17.3359V15.7836C27.3117 15.5036 27.0858 15.2784 26.8062 15.2784Z" fill="#414659"/>
<path d="M68.6545 5.49973H70.4061C70.7343 5.49973 70.9998 5.23507 70.9998 4.90805V3.16227C70.9998 2.83525 70.7343 2.57059 70.4061 2.57059H68.6545C68.3264 2.57059 68.0608 2.83525 68.0608 3.16227V4.90805C68.0608 5.23507 68.3264 5.49973 68.6545 5.49973Z" fill="#414659"/>
<path d="M13.4795 4.00467H15.2312C15.5593 4.00467 15.8249 3.74001 15.8249 3.41299V1.66721C15.8249 1.3402 15.5593 1.07553 15.2312 1.07553H13.4795C13.1514 1.07553 12.8859 1.3402 12.8859 1.66721V3.41299C12.8871 3.74001 13.1527 4.00467 13.4795 4.00467Z" fill="#414659"/>
<path d="M5.80315 13.5302C5.47503 13.5302 5.20947 13.7948 5.20947 14.1218V15.8676C5.20947 16.1946 5.47503 16.4593 5.80315 16.4593H7.55482C7.88294 16.4593 8.1485 16.1946 8.1485 15.8676V14.1218C8.1485 13.7948 7.88294 13.5302 7.55482 13.5302H5.80315Z" fill="#414659"/>
<path d="M55.8852 0.108453C54.7106 0.453283 53.6164 0.80702 52.6027 1.17221C51.6183 1.52722 50.6365 1.92549 49.6573 2.3683C49.416 2.47773 49.2577 2.71567 49.2475 2.97907L49.1862 4.63323C49.176 4.90299 49.3062 5.15493 49.5271 5.31017C50.9366 6.30521 53.4479 8.68085 53.8335 9.6988C53.8692 9.79296 53.8169 9.88457 53.7173 9.90366C52.5989 10.1085 50.9889 10.2116 48.8874 10.2116H48.4329C47.9541 10.2116 47.5916 10.1683 47.3451 10.0793C47.1 9.99145 46.9289 9.86294 46.8345 9.69243C46.74 9.5232 46.68 9.28653 46.6544 8.98496L46.3991 5.43105C46.385 5.23637 46.1999 5.10149 46.0097 5.14729L43.8635 5.66009C43.709 5.69699 43.6056 5.84332 43.6222 5.99983L44.0193 9.71406C44.0359 9.8693 43.9376 10.0105 43.7869 10.0538C43.4218 10.1581 42.9724 10.2103 42.4387 10.2103C42.1667 10.2103 41.9357 10.1861 41.7429 10.1378C41.605 10.1034 41.5105 9.97873 41.508 9.83622L41.4467 6.62459C41.4428 6.45281 41.3024 6.31539 41.13 6.31539H39.1958C39.0158 6.31539 38.8728 6.46427 38.8792 6.64368L39.0056 9.74079C39.012 9.8833 38.9226 10.0169 38.7847 10.0551C38.417 10.1581 38.0148 10.209 37.5782 10.209C37.2501 10.209 37.0075 10.1327 36.8505 9.98255C36.6921 9.83113 36.6206 9.58046 36.6334 9.22927L36.65 6.63223C36.6513 6.45663 36.5096 6.31412 36.3334 6.31412H34.3979C34.223 6.31412 34.0812 6.45536 34.0812 6.62968V8.44163C34.0812 8.98369 33.7327 9.46339 33.2156 9.63263C32.2274 9.9571 30.8128 10.092 29.2731 9.21018C29.1186 9.12238 29.1161 8.89971 29.2693 8.80936C29.4582 8.69866 29.6357 8.59941 29.7953 8.51798C29.9025 8.46326 29.9715 8.35638 29.9715 8.2355L29.9753 6.46299C29.9753 6.20596 29.7787 5.99219 29.5221 5.96674C29.4684 5.96165 29.4199 5.95529 29.3842 5.9502C26.9954 5.62446 24.1521 3.88758 21.5578 3.68399C21.2195 3.65727 20.9182 3.89522 20.8646 4.2286L20.6271 5.69062C20.5645 6.07872 20.862 6.42991 21.2565 6.44136C23.8483 6.51007 24.7931 6.9427 26.5983 7.53947C26.7439 7.58783 26.7669 7.78378 26.6354 7.8614C26.2102 8.11334 25.5246 8.50652 25.1288 8.68466C25.1084 8.69357 25.0854 8.70375 25.0663 8.71266C24.982 8.7521 24.8978 8.79409 24.8135 8.83099C24.2466 9.11984 23.7793 9.32724 23.4142 9.45321C22.0647 9.95583 21.3638 10.2078 19.524 10.2078H19.3236C18.426 10.2078 18.2141 10.12 17.7992 9.94565C17.6868 9.89857 17.6102 9.79041 17.6038 9.66826L17.4583 6.45281C17.4506 6.27086 17.2897 6.13343 17.1072 6.15379L15.3593 6.34593C15.1844 6.36502 15.058 6.52407 15.0797 6.69839L15.4283 9.52574C15.4461 9.66953 15.3632 9.80568 15.2291 9.85912C14.6482 10.0907 13.9881 10.377 12.9042 10.377H11.4755C10.9202 10.377 10.5078 10.3108 10.2371 10.1785C9.9907 10.0589 9.78004 9.83876 9.6013 9.52702L9.59747 9.52829L9.46979 9.29671C9.36383 9.10202 9.43405 8.85772 9.62938 8.75083L10.0533 8.5167C10.1605 8.45817 10.2269 8.34492 10.2269 8.22404L10.2307 6.46426C10.2307 6.20978 10.0379 5.99346 9.78387 5.96929C9.72769 5.9642 9.67662 5.95784 9.6396 5.95147C7.25084 5.62573 4.40758 3.88758 1.81199 3.68527C1.47366 3.65855 1.17235 3.89649 1.11873 4.22987L0.881259 5.6919C0.8187 6.07999 1.11618 6.43245 1.51069 6.44263C4.03477 6.50626 4.98083 6.90453 6.71973 7.49621C6.87932 7.55093 6.88826 7.7736 6.73122 7.83468C5.65111 8.25967 4.32459 8.86408 3.43471 9.45194C1.76348 10.5577 0.590166 12.2806 0.225022 14.2452C0.134375 14.7287 0.127991 15.0163 0.127991 15.3357C0.127991 15.3624 0.127991 15.3891 0.127991 15.4146C0.127991 15.4807 0.135651 15.5456 0.138205 15.6118C0.190551 17.3983 0.747203 18.7954 1.82093 19.793C2.68655 20.5972 3.80368 21.0909 5.16978 21.2792C5.36257 21.3098 5.95369 21.3327 6.15158 21.3454C6.36224 21.3581 6.57673 21.3657 6.79761 21.3683C6.82442 21.3683 6.85123 21.3683 6.87804 21.3683C8.25435 21.3683 9.41362 21.2372 10.532 20.9713C10.8589 20.8937 11.1091 20.6277 11.1615 20.2969L11.4449 18.4977C11.5049 18.1198 11.1627 17.8029 10.7887 17.8869C9.55151 18.1656 8.40118 18.3997 7.04274 18.3997C5.61791 18.3997 2.69804 18.0167 2.69804 15.1486C2.69804 13.2731 4.05265 11.8136 4.65143 11.4802C5.73409 10.8783 5.99199 10.6379 7.33511 10.1543C7.63769 11.0336 7.94028 11.7029 8.24286 12.1622C8.54544 12.6216 8.97442 12.9626 9.52852 13.1891C10.0839 13.4156 10.8525 13.5288 11.8356 13.5288H12.9004C14.0481 13.5288 14.735 13.2527 15.3032 13.0389C15.7258 12.8799 16.0603 12.6343 16.3079 12.3022C16.4139 12.1597 16.6195 12.1724 16.7127 12.3251C16.9016 12.6368 17.1825 12.8722 17.5553 13.03C18.0724 13.2502 18.5167 13.3596 19.3223 13.3596H19.4844C21.6906 13.3596 22.8014 12.8824 24.6041 11.9268L25.1518 11.6253C25.1518 11.6253 25.7161 11.2435 26.3302 10.7689C26.8563 11.6545 28.1496 13.1344 30.9405 13.1344C32.5722 13.1344 33.6574 12.7946 34.38 12.3442C34.5026 12.2678 34.657 12.2997 34.7605 12.3989C35.4524 13.0618 36.5504 13.3596 37.4505 13.3596C39.0783 13.3596 39.7895 12.8099 40.1278 12.4294C40.2453 12.2984 40.4559 12.2997 40.5708 12.4333C40.8249 12.7285 41.1977 12.9613 41.5309 13.0949C41.9727 13.2718 42.7681 13.3583 43.3988 13.3583C43.9159 13.3583 44.4048 13.254 44.8645 13.0466C45.1964 12.8977 45.4837 12.6941 45.7263 12.4371C45.8629 12.292 46.0876 12.306 46.2127 12.4613C46.4042 12.6979 46.6544 12.8901 46.9634 13.0377C47.4103 13.2514 47.8992 13.3583 48.4291 13.3583H48.8836C50.5727 13.3583 51.935 13.2642 52.9691 13.0758C54.0033 12.8875 54.7757 12.5694 55.2864 12.1241C55.7971 11.6787 56.0524 11.0718 56.0524 10.3045C56.0524 7.83468 54.4948 5.81787 52.5912 4.39529C52.5414 4.35711 52.3767 4.23241 52.0997 4.01864C53.453 3.48549 54.8574 3.03124 56.3116 2.6546C56.4661 2.61515 56.5669 2.46755 56.5452 2.31104L56.2899 0.369302C56.2669 0.178436 56.0716 0.0537383 55.8852 0.108453Z" fill="#414659"/>
</svg>
