<svg width="28" height="28" viewBox="0 0 28 28" fill="none" xmlns="http://www.w3.org/2000/svg">
<rect x="6.10352e-05" width="28" height="28" rx="14" fill="#626262"/>
<g clip-path="url(#clip0_2_6765)">
<path d="M19.2833 11.1887C19.2887 11.3119 19.2887 11.4295 19.2887 11.5527C19.2941 15.2879 16.5498 19.5999 11.5313 19.5999C10.0511 19.5999 8.59792 19.1575 7.35004 18.3287C7.56612 18.3567 7.78221 18.3679 7.99829 18.3679C9.22457 18.3679 10.4184 17.9423 11.3854 17.1527C10.2186 17.1303 9.19216 16.3407 8.83562 15.1871C9.24618 15.2711 9.66754 15.2543 10.0673 15.1367C8.7978 14.8791 7.88485 13.7199 7.87944 12.3703C7.87944 12.3591 7.87944 12.3479 7.87944 12.3367C8.25759 12.5551 8.68436 12.6783 9.11653 12.6895C7.92266 11.8607 7.54991 10.2087 8.2738 8.91507C9.66214 10.6847 11.7041 11.7543 13.8974 11.8719C13.6759 10.8919 13.9784 9.86147 14.6861 9.16707C15.7827 8.09747 17.5114 8.15347 18.5486 9.29027C19.1591 9.16707 19.7479 8.93187 20.2827 8.60147C20.0774 9.25667 19.6506 9.81107 19.0834 10.1639C19.6236 10.0967 20.153 9.94547 20.65 9.72147C20.2827 10.2927 19.8181 10.7855 19.2833 11.1887Z" fill="white"/>
</g>
<defs>
<clipPath id="clip0_2_6765">
<rect width="14" height="14" fill="white" transform="translate(7.00006 7)"/>
</clipPath>
</defs>
</svg>
