<svg width="28" height="28" viewBox="0 0 28 28" fill="none" xmlns="http://www.w3.org/2000/svg">
<rect width="28" height="28" rx="14" fill="#626262"/>
<g clip-path="url(#clip0_2_6771)">
<path d="M20.7115 10.6339C20.5501 10.0342 20.0772 9.56138 19.4776 9.39993C18.382 9.1001 13.9998 9.1001 13.9998 9.1001C13.9998 9.1001 9.61766 9.1001 8.52211 9.3884C7.93398 9.54985 7.44963 10.0342 7.28818 10.6339C6.99988 11.7294 6.99988 14.0012 6.99988 14.0012C6.99988 14.0012 6.99988 16.2846 7.28818 17.3686C7.44963 17.9683 7.92244 18.4411 8.52211 18.6025C9.62919 18.9024 13.9998 18.9024 13.9998 18.9024C13.9998 18.9024 18.382 18.9024 19.4776 18.6141C20.0772 18.4526 20.5501 17.9798 20.7115 17.3801C20.9998 16.2846 20.9998 14.0128 20.9998 14.0128C20.9998 14.0128 21.0113 11.7294 20.7115 10.6339Z" fill="white"/>
<path d="M12.6045 16.1L16.2486 14.0012L12.6045 11.9023V16.1Z" fill="#626262"/>
</g>
<defs>
<clipPath id="clip0_2_6771">
<rect width="14" height="14" fill="white" transform="translate(6.99988 7)"/>
</clipPath>
</defs>
</svg>
